# xmcd
#
# Track frame offsets:
#	150
#	16587
#	33003
#	52244
#	72733
#	83340
#	104982
#	124380
#	139550
#	157352
#	176508
#	199410
#	221501
#	239785
#	253770
#	265532
#	282003
#	300372
#
# Disc length: 4211
#
# Revision: 1
# Processed by: cddbd v1.5.1PL0 Copyright (c) Steve Scherf et al.
# Submitted via: MAGIX_Freedb v0.9beta0
# Normalized: r0:DSETVAR1
#
DISCID=0b107112
DTITLE=Various Artist - ACOUSTIC PROJECT
DYEAR=2004
DGENRE=
TTITLE0=SUZANNE VEGA - MARLENE ON THE WALL
TTITLE1=PAUL WELLER - YOU DO SOMETHING TO ME
TTITLE2=MOLOKO - THE TIME IS NOW
TTITLE3=STEREOPHONICS - MAYBE TOMORROW
TTITLE4=MORCHEEBA - OVER and OVER
TTITLE5=NITIN SAWHNEY - FALLING
TTITLE6=JOAN ARMATRADING - LOVE AND AFFECTION
TTITLE7=VELVET UNDERGROUND - JESUS
TTITLE8=HEADWAY - WITHOUT A WORD
TTITLE9=TICKIE LEE JONES - UGLY MAN
TTITLE10=ELBOW - FUGITIVE MOTEL
TTITLE11=EVA CASSIDY - FIELDS OF GOLD
TTITLE12=FEEDER - JUST THE WAY I'M FEELING
TTITLE13=GRANDADDY - I'M ON STANDBY
TTITLE14=THE STANDS - I NEED YOU
TTITLE15=I AM KLOOT - SAME DEEP WATER
TTITLE16=BABYBIRD - FIREFLIES
TTITLE17=JEAN JACQUES SMOOTHIE - LOVE and EVIL
EXTD=
EXTT0=
EXTT1=
EXTT2=
EXTT3=
EXTT4=
EXTT5=
EXTT6=
EXTT7=
EXTT8=
EXTT9=
EXTT10=
EXTT11=
EXTT12=
EXTT13=
EXTT14=
EXTT15=
EXTT16=
EXTT17=
PLAYORDER=
